<svg width="40" height="40" viewBox="0 0 40 40" fill="none" xmlns="http://www.w3.org/2000/svg">
<rect width="40" height="40" rx="8" fill="#EBEBF3"/>
<path d="M13.9805 17.2077L20.4522 14.2046V6L13.9805 17.2077Z" fill="#FF596E"/>
<path d="M20.4531 14.2051V20.7443L26.9249 17.2082L20.4531 14.2051Z" fill="#FF596E"/>
<path d="M20.4512 14.2051V20.7443L13.9805 17.2082L20.4512 14.2051Z" fill="#800010"/>
<path d="M26.9249 17.2077L20.4531 14.2046V6L26.9249 17.2077Z" fill="#800010"/>
<path d="M20.4517 23.2667V30.2352L13.8555 19.6621L20.4517 23.2667Z" fill="#FF596E"/>
<path d="M20.4531 23.2667V30.2352L27.0504 19.6621L20.4531 23.2667Z" fill="#800010"/>
<path d="M28.1367 21.2588L29.632 25.4534L32.9048 19.9854L28.1367 21.2588Z" fill="#800010"/>
<path d="M29.6328 25.4534L32.9055 24.4838V19.9854L29.6328 25.4534Z" fill="#FF596E"/>
<path d="M32.9048 24.4834L28.1368 32.4474L24.5156 33.9987L29.6321 25.453L32.9048 24.4834Z" fill="#800010"/>
<path d="M8 24.4834L12.768 32.4474L16.3892 33.9987L11.2727 25.453L8 24.4834Z" fill="#FF596E"/>
<path d="M20.4489 34.0001L12.7649 21.2598L11.2695 25.4543L16.386 34.0001H20.4489Z" fill="#800010"/>
<path d="M12.768 21.2588L11.2727 25.4534L8 19.9854L12.768 21.2588Z" fill="#FF596E"/>
<path d="M11.2727 25.4534L8 24.4838V19.9854L11.2727 25.4534Z" fill="#800010"/>
<path d="M20.4531 34.0001L28.1382 21.2598L29.6335 25.4543L24.5171 34.0001H20.4531Z" fill="#FF596E"/>
</svg>
