<svg width="15" height="15" viewBox="0 0 15 15" fill="none" xmlns="http://www.w3.org/2000/svg">
<mask id="mask0_1_387" style="mask-type:alpha" maskUnits="userSpaceOnUse" x="0" y="0" width="15" height="15">
<rect width="15" height="15" fill="#D9D9D9"/>
</mask>
<g mask="url(#mask0_1_387)">
<path d="M3.26934 12.75C2.98664 12.75 2.74608 12.6508 2.54765 12.4524C2.34922 12.2539 2.25 12.0134 2.25 11.7307V3.26934C2.25 2.98664 2.34922 2.74608 2.54765 2.54765C2.74608 2.34922 2.99235 2.25 3.28646 2.25H7.1942V3.06547H3.28646C3.22992 3.06547 3.17909 3.0883 3.13397 3.13397C3.0883 3.17909 3.06547 3.22992 3.06547 3.28646V11.7135C3.06547 11.7701 3.0883 11.8209 3.13397 11.866C3.17909 11.9117 3.22992 11.9345 3.28646 11.9345H11.7135C11.7701 11.9345 11.8209 11.9117 11.866 11.866C11.9117 11.8209 11.9345 11.7701 11.9345 11.7135V7.8058H12.75V11.7135C12.75 12.0076 12.6508 12.2539 12.4524 12.4524C12.2539 12.6508 12.0134 12.75 11.7307 12.75H3.26934ZM5.95387 9.62349L5.37651 9.04613L11.3564 3.06547H9.02901V2.25H12.75V5.97099H11.9345V3.64364L5.95387 9.62349Z" fill="#0A8FF6"/>
</g>
</svg>
