<svg width="14" height="15" viewBox="0 0 14 15" fill="none" xmlns="http://www.w3.org/2000/svg">
<path d="M13.1187 5.925C12.8812 5.68125 12.6375 5.425 12.5437 5.20625C12.45 4.9875 12.4563 4.6625 12.45 4.33125C12.4437 3.725 12.4312 3.03125 11.95 2.55C11.4688 2.06875 10.775 2.05625 10.1687 2.05C9.8375 2.04375 9.5 2.0375 9.29375 1.95625C9.0875 1.875 8.81875 1.61875 8.575 1.38125C8.14375 0.96875 7.65 0.5 7 0.5C6.35 0.5 5.85625 0.96875 5.425 1.38125C5.18125 1.61875 4.925 1.8625 4.70625 1.95625C4.4875 2.05 4.1625 2.04375 3.83125 2.05C3.225 2.05625 2.53125 2.06875 2.05 2.55C1.56875 3.03125 1.55625 3.725 1.55 4.33125C1.54375 4.6625 1.5375 5 1.45625 5.20625C1.375 5.4125 1.11875 5.68125 0.88125 5.925C0.46875 6.35625 0 6.85 0 7.5C0 8.15 0.46875 8.64375 0.88125 9.075C1.11875 9.31875 1.3625 9.575 1.45625 9.79375C1.55 10.0125 1.54375 10.3375 1.55 10.6687C1.55625 11.275 1.56875 11.9688 2.05 12.45C2.53125 12.9312 3.225 12.9437 3.83125 12.95C4.1625 12.9563 4.5 12.9625 4.70625 13.0437C4.9125 13.125 5.18125 13.3812 5.425 13.6187C5.85625 14.0312 6.35 14.5 7 14.5C7.65 14.5 8.14375 14.0312 8.575 13.6187C8.81875 13.3812 9.075 13.1375 9.29375 13.0437C9.5125 12.95 9.8375 12.9563 10.1687 12.95C10.775 12.9437 11.4688 12.9312 11.95 12.45C12.4312 11.9688 12.4437 11.275 12.45 10.6687C12.4563 10.3375 12.4625 10 12.5437 9.79375C12.625 9.5875 12.8812 9.31875 13.1187 9.075C13.5312 8.64375 14 8.15 14 7.5C14 6.85 13.5312 6.35625 13.1187 5.925ZM10.0938 6.3625L6.43125 9.8625C6.33656 9.95157 6.21124 10.0008 6.08125 10C5.95317 10.0005 5.82991 9.95118 5.7375 9.8625L3.90625 8.1125C3.85546 8.06819 3.81415 8.01406 3.78481 7.95337C3.75547 7.89269 3.7387 7.8267 3.73552 7.75937C3.73233 7.69204 3.74279 7.62476 3.76627 7.56157C3.78975 7.49839 3.82577 7.4406 3.87215 7.39169C3.91853 7.34278 3.97432 7.30375 4.03617 7.27695C4.09802 7.25015 4.16465 7.23614 4.23205 7.23574C4.29946 7.23535 4.36625 7.2486 4.4284 7.27467C4.49056 7.30075 4.5468 7.33913 4.59375 7.3875L6.08125 8.80625L9.40625 5.6375C9.50347 5.55268 9.62971 5.50872 9.75859 5.51482C9.88746 5.52092 10.009 5.5766 10.0978 5.67022C10.1865 5.76384 10.2357 5.88815 10.235 6.01717C10.2342 6.14618 10.1836 6.26992 10.0938 6.3625Z" fill="#06DD76"/>
</svg>
