<svg width="80" height="80" viewBox="0 0 80 80" fill="none" xmlns="http://www.w3.org/2000/svg">
<mask id="mask0_5619_4666" style="mask-type:alpha" maskUnits="userSpaceOnUse" x="0" y="0" width="80" height="80">
<rect width="80" height="80" fill="#D9D9D9"/>
</mask>
<g mask="url(#mask0_5619_4666)">
<path d="M35.1257 47.6237L26.9959 39.4523C26.4991 38.9832 25.9034 38.7487 25.209 38.7487C24.5145 38.7487 23.9034 39.0126 23.3757 39.5404C22.8757 40.0404 22.6257 40.6376 22.6257 41.332C22.6257 42.0265 22.8708 42.6049 23.361 43.0674L33.459 53.2487C33.9211 53.7487 34.4754 53.9987 35.1219 53.9987C35.7683 53.9987 36.339 53.7487 36.834 53.2487L56.584 33.4987C57.1118 32.9709 57.3757 32.3598 57.3757 31.6654C57.3757 30.9709 57.1118 30.3459 56.584 29.7904C56.0284 29.3181 55.3895 29.0959 54.6673 29.1237C53.9451 29.1515 53.3515 29.3978 52.8867 29.8627L35.1257 47.6237ZM40.006 72.9154C35.5076 72.9154 31.254 72.047 27.2452 70.3101C23.2364 68.5733 19.742 66.2122 16.7622 63.2268C13.7823 60.2414 11.4243 56.7481 9.68815 52.7468C7.95204 48.7454 7.08398 44.4979 7.08398 40.004C7.08398 35.4501 7.9524 31.1687 9.68923 27.1599C11.4261 23.1511 13.7872 19.6637 16.7726 16.6977C19.758 13.7317 23.2513 11.3876 27.2526 9.66536C31.2538 7.94314 35.5014 7.08203 39.9953 7.08203C44.5493 7.08203 48.8308 7.94681 52.8399 9.67637C56.8491 11.4059 60.3365 13.7531 63.3022 16.718C66.2678 19.6829 68.6118 23.166 70.334 27.1673C72.0562 31.1686 72.9173 35.4439 72.9173 39.9934C72.9173 44.4917 72.0559 48.7453 70.3329 52.7541C68.61 56.7629 66.2627 60.2573 63.2912 63.2372C60.3197 66.2171 56.8333 68.5751 52.8321 70.3112C48.8308 72.0473 44.5554 72.9154 40.006 72.9154ZM39.9979 68.1237C47.8053 68.1237 54.4451 65.3746 59.9173 59.8765C65.3895 54.3783 68.1257 47.7533 68.1257 40.0015C68.1257 32.1941 65.3905 25.5543 59.9201 20.082C54.4497 14.6098 47.8108 11.8737 40.0034 11.8737C32.2516 11.8737 25.6257 14.6089 20.1257 20.0793C14.6257 25.5497 11.8757 32.1886 11.8757 39.9959C11.8757 47.7478 14.6247 54.3737 20.1229 59.8737C25.6211 65.3737 32.2461 68.1237 39.9979 68.1237Z" fill="#3EB66A"/>
</g>
</svg>
