<svg width="20" height="16" viewBox="0 0 20 16" fill="none" xmlns="http://www.w3.org/2000/svg">
<path fill-rule="evenodd" clip-rule="evenodd" d="M12.9755 0.0790203C10.8123 0.517368 9.29105 2.62705 9.6829 4.64517C9.74291 4.95427 9.7256 4.96441 9.21915 4.91632C6.53369 4.66137 4.09268 3.56523 2.13871 1.73684C1.88064 1.49536 1.62457 1.2813 1.56961 1.26116C0.0727487 0.712372 0.38619 4.47328 1.94834 5.8051C2.32128 6.12301 2.27449 6.1516 1.61599 6.00827C1.11801 5.89987 1.03072 5.89794 0.841359 5.99111C0.576187 6.12154 0.420005 6.50968 0.542261 6.73439C0.560915 6.76862 0.605172 6.87723 0.640697 6.97577C1.04347 8.09391 2.03771 9.05298 3.22593 9.46962C3.72599 9.64495 3.68942 9.69708 3.01743 9.76699C1.20017 9.95612 3.26368 12.1612 5.57011 12.4948C5.85665 12.5363 5.77322 12.643 5.17194 13.0044C3.93635 13.7469 2.28668 14.232 0.997318 14.232C-0.389332 14.232 1.33815 15.2366 3.54822 15.7155C10.9656 17.3226 17.9358 11.92 17.9362 4.56322L17.9363 4.01401L18.0401 3.91823C18.0972 3.86555 18.2669 3.72569 18.4171 3.60745C19.2838 2.9255 19.6861 2.37711 19.4178 2.24335C19.2859 2.17759 19.268 2.17967 18.6725 2.3301C17.8817 2.52987 17.6775 2.51407 18.0013 2.27821C18.5371 1.88802 19.1625 1.11714 19.1625 0.846998C19.1625 0.562195 18.9852 0.557071 18.3234 0.822703C18.0766 0.921817 17.692 1.05182 17.4688 1.11159C16.8019 1.29022 16.863 1.29377 16.593 1.06081C15.5869 0.192827 14.2306 -0.175324 12.9755 0.0790203Z" fill="black"/>
</svg>
